<svg data-v-0dd9719b="" version="1.0" xmlns="http://www.w3.org/2000/svg" xmlns:xlink="http://www.w3.org/1999/xlink" width="100%" height="100%" viewBox="0 0 340.000000 250.000000" preserveAspectRatio="xMidYMid meet" color-interpolation-filters="sRGB" style="margin: auto;"> <rect data-v-0dd9719b="" x="0" y="0" width="100%" height="100%" fill="#fff" fill-opacity="1" class="background"></rect> <rect data-v-0dd9719b="" x="0" y="0" width="100%" height="100%" fill="url(#watermark)" fill-opacity="1" class="watermarklayer"></rect> <g data-v-0dd9719b="" fill="#333" class="icon-text-wrapper icon-svg-group iconsvg" transform="translate(47.959999084472656,88.2623062133789)"><g class="iconsvg-imagesvg" transform="translate(0,0)"><g><rect fill="#333" fill-opacity="0" stroke-width="2" x="0" y="0" width="60" height="73.47538574577517" class="image-rect"></rect> <svg x="0" y="0" width="60" height="73.47538574577517" filtersec="colorsb5775717220" class="image-svg-svg primary" style="overflow: visible;"><svg xmlns="http://www.w3.org/2000/svg" viewBox="0 0 81.66000366210938 100"><title>10</title><g fill-rule="evenodd"><path d="M51.66 60H20.37V40h31.29a10 10 0 1 0 0-19.92H20.37V0h31.29a30 30 0 0 1 0 60z" fill="#29aae1" opacity=".8"></path><path d="M20.37 60V40h31.29a30 30 0 0 1 0 60H20.37V80h31.29a10 10 0 0 0 0-19.92z" fill="#2ab572" opacity=".8"></path><path d="M74 50a30 30 0 0 1-22.34 10H20.37V40h31.29A30 30 0 0 1 74 50" fill="#29aae1"></path><path fill="#29aae1" opacity=".8" d="M0 80.08h20.37V60.02H0v20.06z"></path><path fill="#29aae1" d="M0 100h20.37V80.08H0V100z"></path></g></svg></svg> <!----></g></g> <g transform="translate(67,10.342693328857422)"><g data-gra="path-name" fill-rule="" class="tp-name iconsvg-namesvg"><g transform="scale(1)"><g><path d="M23.79-10.04L23.79-10.04Q23.66-7.55 22.9-5.73 22.13-3.91 20.95-2.63 19.77-1.35 18.28-0.55 16.8 0.25 15.29 0.71 13.77 1.17 12.31 1.33 10.85 1.5 9.73 1.5L9.73 1.5Q7.57 1.5 5.68 1.37 3.79 1.25 1.98 0.94L1.98 0.94Q2.13-0.66 2.24-2.58 2.34-4.5 2.41-6.49 2.49-8.49 2.52-10.42 2.54-12.35 2.57-13.99 2.59-15.63 2.59-16.84 2.59-18.04 2.59-18.58L2.59-18.58Q2.57-22.21 2.49-25.59L2.49-25.59Q2.47-27.04 2.43-28.55 2.39-30.06 2.35-31.5 2.31-32.94 2.26-34.22 2.21-35.5 2.13-36.49L2.13-36.49Q2.85-36.59 3.7-36.65 4.55-36.7 5.4-36.73 6.25-36.77 7.08-36.79 7.9-36.8 8.59-36.8L8.59-36.8Q11.66-36.8 14.4-36.34 17.13-35.88 19.17-34.78 21.22-33.67 22.4-31.86 23.58-30.04 23.58-27.32L23.58-27.32Q23.46-25.67 22.77-24.22L22.77-24.22Q22.47-23.58 22.02-22.94 21.58-22.29 20.91-21.7 20.25-21.12 19.36-20.61 18.48-20.1 17.33-19.77L17.33-19.77Q18.98-19.34 20.1-18.48 21.22-17.61 21.94-16.56 22.67-15.5 23.04-14.38 23.41-13.27 23.57-12.33 23.74-11.39 23.76-10.75 23.79-10.11 23.79-10.04ZM16.65-9.78L16.65-9.78Q16.57-11.92 15.93-13.62L15.93-13.62Q15.65-14.33 15.24-15.03 14.82-15.73 14.21-16.28 13.6-16.82 12.76-17.15 11.92-17.48 10.83-17.48L10.83-17.48Q10.55-17.48 10.24-17.46 9.94-17.43 9.58-17.38L9.58-17.38 9.38-3.02Q10.14-2.87 10.88-2.87L10.88-2.87Q11.94-2.87 12.74-3.16 13.55-3.46 14.16-3.95 14.76-4.45 15.18-5.06 15.6-5.67 15.88-6.33L15.88-6.33Q16.54-7.85 16.65-9.78ZM16.54-27.47L16.54-27.47Q16.44-28.89 15.83-30.01L15.83-30.01Q15.58-30.5 15.18-30.95 14.79-31.41 14.22-31.77 13.65-32.12 12.87-32.35 12.1-32.58 11.08-32.58L11.08-32.58Q10.27-32.58 9.28-32.43L9.28-32.43 9.58-21.65 10.14-21.65Q11.72-21.65 12.81-22.07 13.9-22.49 14.61-23.11 15.32-23.74 15.72-24.47 16.11-25.21 16.29-25.86 16.47-26.51 16.51-26.95 16.54-27.4 16.54-27.47ZM39.72-27.52L46.23-27.42Q46.07-25.92 45.97-24.38 45.87-22.85 45.78-21.32 45.69-19.8 45.62-18.36 45.54-16.93 45.49-15.63L45.49-15.63Q45.36-12.6 45.29-9.78L45.29-9.78Q45.13-6.79 45.12-3.85 45.11-0.91 44.93 1.74 44.75 4.4 44.26 6.67 43.76 8.95 42.64 10.61 41.52 12.27 39.63 13.21 37.74 14.16 34.76 14.16L34.76 14.16Q32.53 14.16 31.19 13.51 29.86 12.86 29.15 11.93 28.44 11 28.22 9.96 28.01 8.92 28.01 8.11L28.01 8.11Q28.01 7.24 28.27 6.49 28.54 5.74 29.02 5.18 29.5 4.63 30.2 4.29 30.9 3.96 31.79 3.96L31.79 3.96Q32.73 3.96 33.47 4.32 34.21 4.68 34.7 5.25 35.2 5.82 35.45 6.53 35.71 7.24 35.71 7.95L35.71 7.95Q35.68 8.36 35.53 8.79L35.53 8.79Q35.4 9.15 35.08 9.59 34.76 10.04 34.21 10.47L34.21 10.47Q34.51 10.6 34.78 10.64 35.04 10.67 35.3 10.67L35.3 10.67Q35.96 10.67 36.68 10.28 37.41 9.89 38.02 9.05 38.63 8.21 39.03 6.94 39.44 5.67 39.49 3.91L39.49 3.91Q39.49 2.01 39.5 0.18 39.52-1.65 39.57-3.86L39.57-3.86Q38.7-2.21 37.71-1.31 36.72-0.41 35.83 0.03L35.83 0.03Q34.82 0.53 33.77 0.64L33.77 0.64Q31.89 0.64 30.5-0.3 29.1-1.25 28.18-2.97 27.27-4.7 26.82-7.13 26.38-9.56 26.38-12.55L26.38-12.55Q26.38-20.86 27.52-28.41L27.52-28.41 33.98-27.7Q33.77-26.86 33.58-25.87 33.39-24.88 33.24-23.81 33.09-22.74 32.97-21.66 32.86-20.58 32.76-19.59L32.76-19.59Q32.53-17.26 32.38-14.84L32.38-14.84Q32.38-12.43 32.53-10.64 32.68-8.84 33.07-7.66 33.47-6.48 34.16-5.9 34.84-5.31 35.91-5.31L35.91-5.31Q36.67-5.44 37.38-6.38L37.38-6.38Q37.69-6.79 38.02-7.4 38.35-8.01 38.68-8.89 39.01-9.78 39.31-10.99 39.62-12.2 39.87-13.8L39.87-13.8Q39.95-15.78 39.99-17.42 40.03-19.06 40.03-20.56L40.03-20.56Q40.03-22.36 39.95-24.03 39.87-25.69 39.72-27.52L39.72-27.52ZM52.05-38.53L58.5-38.63Q58.3-36.01 58.17-33.48 58.04-30.95 57.92-28.41L57.92-28.41Q59.03-28.46 60.13-28.5 61.22-28.54 62.36-28.61L62.36-28.61 62.47-22.11Q61.25-22.31 60.05-22.44 58.86-22.57 57.71-22.64L57.71-22.64Q57.64-20.48 57.62-18.37 57.61-16.26 57.61-14.1L57.61-14.1Q57.61-10.24 57.7-6.43 57.79-2.62 57.99 1.25L57.99 1.25 51.36 1.14Q51.69-4.83 51.91-10.79 52.12-16.75 52.2-22.8L52.2-22.8Q51.13-22.74 50.06-22.68 49-22.62 47.88-22.54L47.88-22.54 48.08-28.56Q49.12-28.49 50.15-28.45 51.18-28.41 52.2-28.36L52.2-28.36Q52.2-30.9 52.15-33.43 52.1-35.96 52.05-38.53L52.05-38.53ZM82.59-5.46L82.59-5.46Q82.59-3.96 81.91-2.64 81.22-1.32 80.05-0.36 78.88 0.61 77.31 1.17 75.73 1.73 73.95 1.73L73.95 1.73Q72.76 1.73 71.54 1.4 70.32 1.07 69.2 0.3 68.08-0.46 67.09-1.7 66.1-2.95 65.37-4.75 64.65-6.56 64.23-8.98 63.81-11.41 63.81-14.56L63.81-14.56Q63.81-17.53 64.23-19.82 64.65-22.11 65.37-23.81 66.1-25.51 67.06-26.67 68.03-27.83 69.14-28.55 70.24-29.28 71.42-29.58 72.6-29.89 73.75-29.89L73.75-29.89Q75.45-29.89 76.98-29.34 78.5-28.79 79.64-27.73 80.79-26.66 81.46-25.1 82.13-23.53 82.13-21.5L82.13-21.5Q82.13-19.67 81.39-17.8 80.64-15.93 79.16-14.27 77.69-12.6 75.51-11.25 73.34-9.89 70.52-9.1L70.52-9.1Q70.67-7.52 70.97-6.23 71.26-4.93 71.7-4.02 72.15-3.1 72.74-2.59 73.34-2.08 74.13-2.08L74.13-2.08Q74.64-2.11 75.1-2.26L75.1-2.26Q75.5-2.39 75.92-2.67 76.34-2.95 76.62-3.48L76.62-3.48Q75.96-3.79 75.6-4.27 75.25-4.75 75.07-5.18L75.07-5.18Q74.87-5.69 74.84-6.25L74.84-6.25Q74.84-7.47 75.32-8.23 75.81-9 76.47-9.43 77.13-9.86 77.81-10.03 78.5-10.19 78.91-10.19L78.91-10.19Q79.34-10.19 79.96-10.01 80.58-9.83 81.17-9.33 81.75-8.82 82.17-7.89 82.59-6.96 82.59-5.46ZM76.32-21.45L76.32-21.45Q76.32-22.36 76.15-23.19 75.98-24.02 75.67-24.63 75.35-25.24 74.88-25.6 74.41-25.97 73.8-25.97L73.8-25.97Q72.76-25.97 72.1-25.02 71.44-24.07 71.03-22.49 70.62-20.91 70.47-18.86 70.32-16.8 70.32-14.56L70.32-14.56 70.32-12.71Q71.61-13.39 72.72-14.33 73.82-15.27 74.63-16.4 75.43-17.53 75.87-18.81 76.32-20.08 76.32-21.45ZM107.37-36.34L114.61-36.16Q114.84-33.14 115.02-29.81L115.02-29.81Q115.1-28.39 115.17-26.76 115.25-25.13 115.3-23.37 115.35-21.6 115.39-19.76 115.43-17.92 115.43-16.09L115.43-16.09Q115.43-12.5 114.97-9.28 114.51-6.05 113.47-3.58 112.43-1.12 110.72 0.33 109.02 1.78 106.53 1.78L106.53 1.78Q106.48 1.78 106.09 1.75 105.69 1.73 105.08 1.58 104.47 1.42 103.72 1.09 102.97 0.76 102.21 0.15 101.45-0.46 100.76-1.41 100.08-2.36 99.62-3.74L99.62-3.74Q99.09-2.44 98.35-1.58 97.61-0.71 96.82-0.14 96.04 0.43 95.24 0.74 94.43 1.04 93.8 1.17 93.16 1.3 92.73 1.32 92.3 1.35 92.22 1.35L92.22 1.35Q90.7 1.35 89.62 0.65 88.54-0.05 87.79-1.28 87.04-2.52 86.61-4.18 86.18-5.84 85.93-7.79 85.69-9.73 85.63-11.87 85.57-14 85.57-16.14L85.57-16.14Q85.57-18.07 85.59-19.99 85.62-21.91 85.65-23.71 85.69-25.51 85.76-27.18 85.82-28.84 85.87-30.27L85.87-30.27Q86-33.62 86.18-36.59L86.18-36.59 93.62-36.39Q93.14-33.44 92.76-30.19L92.76-30.19Q92.6-28.79 92.45-27.19 92.3-25.59 92.19-23.85 92.07-22.11 91.99-20.27 91.92-18.42 91.92-16.59L91.92-16.59Q91.92-15.2 91.93-13.77 91.94-12.35 92.01-11.02 92.07-9.68 92.2-8.53 92.33-7.37 92.57-6.49 92.81-5.62 93.18-5.12 93.55-4.63 94.1-4.63L94.1-4.63Q94.64-4.63 95.11-5.29 95.58-5.95 95.95-7.03 96.32-8.11 96.61-9.47 96.9-10.83 97.09-12.21 97.28-13.6 97.38-14.89 97.48-16.19 97.48-17.13L97.48-17.13Q97.48-17.43 97.51-17.92L97.51-17.92Q97.51-18.35 97.52-19.02 97.53-19.7 97.53-20.66L97.53-20.66Q97.53-22.59 97.48-25.88 97.43-29.17 97.33-34.13L97.33-34.13 103.79-33.88Q103.56-29.78 103.41-26.91 103.25-24.04 103.15-22.12 103.05-20.2 103.01-19.05 102.97-17.89 102.96-17.22 102.95-16.54 102.95-16.2 102.95-15.86 102.95-15.55L102.95-15.55Q102.95-14.46 103.04-13.2 103.13-11.94 103.32-10.7 103.51-9.45 103.8-8.3 104.09-7.14 104.46-6.26 104.83-5.39 105.3-4.85 105.77-4.32 106.33-4.32L106.33-4.32Q107.19-4.32 107.71-5.29 108.23-6.25 108.5-7.92 108.77-9.58 108.84-11.78 108.92-13.98 108.92-16.44L108.92-16.44Q108.92-20.28 108.75-23.53 108.59-26.79 108.34-29.31 108.08-31.84 107.81-33.63 107.55-35.43 107.37-36.34L107.37-36.34ZM137.03 0.69L131.16 1.04Q131 0.25 130.88-0.56 130.75-1.37 130.67-2.24L130.67-2.24Q129.5-0.51 127.88 0.42 126.25 1.35 124.32 1.35L124.32 1.35Q123.33 1.35 122.29 1.03 121.25 0.71 120.39-0.08 119.54-0.86 119-2.22 118.45-3.58 118.45-5.67L118.45-5.67Q118.45-7.4 118.96-8.68 119.47-9.96 120.28-10.93 121.09-11.89 122.11-12.6 123.13-13.32 124.13-13.88 125.13-14.43 126.05-14.92 126.96-15.4 127.55-15.88L127.55-15.88Q128.67-16.77 129.49-17.78 130.32-18.78 130.83-19.87L130.83-19.87Q130.72-21.63 130.46-22.76 130.19-23.89 129.76-24.56 129.33-25.24 128.7-25.5 128.08-25.77 127.29-25.77L127.29-25.77Q126.12-25.77 125.32-25.26 124.52-24.75 124.02-24.04L124.02-24.04Q124.65-23.63 124.99-23.18 125.34-22.72 125.51-22.29L125.51-22.29Q125.72-21.8 125.74-21.3L125.74-21.3Q125.74-19.57 124.76-18.65 123.79-17.74 122.26-17.74L122.26-17.74Q121.47-17.74 120.81-18.11 120.15-18.48 119.66-19.14 119.16-19.8 118.88-20.71 118.6-21.63 118.6-22.69L118.6-22.69Q118.6-23.76 119.09-24.96 119.57-26.15 120.64-27.18 121.7-28.21 123.38-28.88 125.06-29.56 127.45-29.56L127.45-29.56Q129.83-29.56 131.54-28.63 133.24-27.7 134.33-26.16 135.43-24.63 135.92-22.62 136.42-20.61 136.42-18.48L136.42-18.48Q136.42-16.87 136.39-14.99 136.37-13.11 136.37-11.13L136.37-11.13Q136.37-9.48 136.39-7.83 136.42-6.18 136.49-4.64 136.57-3.1 136.7-1.74 136.82-0.38 137.03 0.69L137.03 0.69ZM130.57-8.44L130.78-13.85Q129.89-12.78 128.87-12.02L128.87-12.02Q128.11-11.49 127.23-10.83 126.35-10.17 125.6-9.43 124.85-8.69 124.36-7.89 123.86-7.09 123.86-6.25L123.86-6.25Q123.86-5.11 124.42-4.29 124.98-3.48 126-3.48L126-3.48Q126.94-3.48 127.67-3.99 128.41-4.5 128.98-5.25 129.56-6 129.95-6.86 130.34-7.73 130.57-8.44L130.57-8.44ZM151.89-28.31L159.75-28.21Q158.53-24.42 157.46-20.86 156.39-17.31 155.45-13.76 154.51-10.22 153.67-6.61 152.83-3 152.1 0.89L152.1 0.89 144.75 1.04Q144.07-2.74 143.37-6.29 142.67-9.83 141.89-13.34 141.12-16.85 140.25-20.41 139.39-23.96 138.4-27.75L138.4-27.75 145.69-28.06Q146.28-22.62 146.99-16.95 147.7-11.28 148.67-5.82L148.67-5.82Q149.91-11.33 150.69-17.06 151.46-22.8 151.89-28.31L151.89-28.31ZM179.06-5.46L179.06-5.46Q179.06-3.96 178.37-2.64 177.69-1.32 176.52-0.36 175.35 0.61 173.77 1.17 172.2 1.73 170.42 1.73L170.42 1.73Q169.22 1.73 168.01 1.4 166.79 1.07 165.67 0.3 164.55-0.46 163.56-1.7 162.57-2.95 161.84-4.75 161.12-6.56 160.7-8.98 160.28-11.41 160.28-14.56L160.28-14.56Q160.28-17.53 160.7-19.82 161.12-22.11 161.84-23.81 162.57-25.51 163.53-26.67 164.5-27.83 165.6-28.55 166.71-29.28 167.89-29.58 169.07-29.89 170.22-29.89L170.22-29.89Q171.92-29.89 173.44-29.34 174.97-28.79 176.11-27.73 177.26-26.66 177.93-25.1 178.6-23.53 178.6-21.5L178.6-21.5Q178.6-19.67 177.85-17.8 177.1-15.93 175.63-14.27 174.16-12.6 171.98-11.25 169.81-9.89 166.99-9.1L166.99-9.1Q167.14-7.52 167.43-6.23 167.73-4.93 168.17-4.02 168.61-3.1 169.21-2.59 169.81-2.08 170.6-2.08L170.6-2.08Q171.11-2.11 171.56-2.26L171.56-2.26Q171.97-2.39 172.39-2.67 172.81-2.95 173.09-3.48L173.09-3.48Q172.43-3.79 172.07-4.27 171.72-4.75 171.54-5.18L171.54-5.18Q171.33-5.69 171.31-6.25L171.31-6.25Q171.31-7.47 171.79-8.23 172.27-9 172.94-9.43 173.6-9.86 174.28-10.03 174.97-10.19 175.37-10.19L175.37-10.19Q175.81-10.19 176.43-10.01 177.05-9.83 177.64-9.33 178.22-8.82 178.64-7.89 179.06-6.96 179.06-5.46ZM172.78-21.45L172.78-21.45Q172.78-22.36 172.62-23.19 172.45-24.02 172.13-24.63 171.82-25.24 171.35-25.6 170.88-25.97 170.27-25.97L170.27-25.97Q169.22-25.97 168.56-25.02 167.9-24.07 167.5-22.49 167.09-20.91 166.94-18.86 166.79-16.8 166.79-14.56L166.79-14.56 166.79-12.71Q168.08-13.39 169.19-14.33 170.29-15.27 171.09-16.4 171.89-17.53 172.34-18.81 172.78-20.08 172.78-21.45Z" transform="translate(-1.9800000190734863, 38.630001068115234)"></path></g> <!----> <!----> <!----> <!----> <!----> <!----> <!----></g></g> <!----></g></g><defs v-gra="od"></defs></svg>